<?xml version="1.0" standalone="no"?>
<!DOCTYPE svg PUBLIC "-//W3C//DTD SVG 20010904//EN"
 "http://www.w3.org/TR/2001/REC-SVG-20010904/DTD/svg10.dtd">
<svg version="1.0" xmlns="http://www.w3.org/2000/svg"
 width="262.000000pt" height="262.000000pt" viewBox="0 0 262.000000 262.000000"
 preserveAspectRatio="xMidYMid meet">
<metadata>
Created by potrace 1.14, written by Peter Selinger 2001-2017
</metadata>
<g transform="translate(0.000000,262.000000) scale(0.100000,-0.100000)"
fill="#000000" stroke="none">
<path d="M1207 2514 c-1 -1 -20 -5 -43 -7 -22 -3 -62 -13 -89 -22 -28 -9 -63
-19 -80 -22 -42 -7 -65 -20 -112 -63 -9 -8 -18 -14 -20 -12 -2 1 -18 -5 -35
-14 -35 -18 -223 -202 -215 -210 2 -3 -4 -15 -15 -27 -17 -19 -58 -109 -58
-127 0 -3 104 -5 230 -5 148 0 230 -3 230 -10 0 -6 3 -6 8 0 9 14 142 14 142
0 0 -5 4 -4 9 4 8 13 12 13 27 0 10 -8 15 -9 11 -2 -5 8 8 11 47 10 l54 -2 -1
-87 c0 -61 -3 -85 -11 -81 -24 14 -56 49 -56 61 0 7 -4 11 -9 7 -5 -3 -12 -1
-16 4 -3 6 -21 8 -40 7 -22 -3 -35 1 -35 8 0 7 -3 7 -8 1 -8 -12 -112 -15
-112 -3 0 4 -7 5 -15 2 -24 -10 -225 -10 -225 -1 0 5 -5 5 -10 2 -15 -10 -150
-12 -150 -3 0 4 -11 3 -24 -2 -13 -5 -26 -6 -29 -3 -16 15 -44 -12 -57 -54
-31 -102 -34 -225 -9 -339 11 -49 22 -98 24 -109 3 -11 8 -33 12 -50 7 -34 6
-117 -3 -155 -7 -29 -8 -77 -2 -102 11 -45 56 -113 93 -138 52 -36 83 -70 64
-70 -11 0 -11 -2 -1 -8 17 -11 5 -40 -19 -47 -10 -4 -19 -10 -19 -14 0 -14 53
-71 66 -71 7 0 18 -10 25 -22 6 -11 23 -32 37 -45 l26 -24 -22 -21 -21 -22 62
-61 c34 -33 69 -70 78 -81 15 -19 26 -21 143 -20 l128 1 15 -35 c10 -22 16
-70 18 -127 1 -66 6 -98 18 -117 10 -14 21 -25 25 -24 15 4 52 -14 53 -25 1
-7 2 -21 3 -32 1 -16 8 -20 36 -20 36 0 36 1 39 53 1 14 7 22 20 22 22 0 40
20 46 52 6 27 13 59 21 91 3 12 6 29 7 37 1 8 7 18 12 22 6 5 4 8 -4 8 -11 0
-11 4 2 18 10 10 14 22 11 25 -4 4 -1 13 6 22 9 11 9 15 1 15 -7 0 -10 3 -8 7
3 5 65 7 139 6 164 -2 182 4 197 63 8 31 17 44 29 44 35 1 48 23 46 78 -1 29
0 51 3 48 7 -7 114 99 116 115 2 8 6 19 9 25 4 6 -2 17 -13 24 -26 19 -24 61
4 85 12 11 26 20 32 20 5 0 16 14 25 30 8 17 18 32 23 33 4 2 4 9 0 15 -4 6
-1 8 9 5 8 -4 20 2 27 14 10 16 10 19 -1 12 -7 -4 -4 3 7 15 21 24 21 30 15
206 -2 63 2 93 19 140 52 141 60 306 20 436 -6 19 -17 59 -25 89 -17 62 -142
280 -161 280 -7 0 -13 6 -13 14 0 8 -10 18 -22 22 -13 4 -49 30 -80 59 -60 54
-238 152 -256 141 -6 -3 -13 -2 -16 3 -6 9 -44 16 -146 27 -57 6 -258 12 -263
8z m182 -2072 c-8 -9 -14 -18 -15 -20 -1 -1 -4 5 -6 16 -4 12 1 18 14 19 17 2
18 0 7 -15z"/>
</g>
</svg>
