<svg xmlns="http://www.w3.org/2000/svg" width="274.685" height="96.068" viewBox="0 0 72.677 25.418"><path d="M56.8 0l11.78 15.78h4.04L60.82 0zM68.02 0l4.64 6.2V0zM31.12 22.13v-.92c0-.43-.53-.88-.53-.88h1.77c.67 0 1.03.37 1.05.9-.02.53-.4.9-1.02.9zm2.62.97c.78-.34 1.2-1.02 1.2-1.9 0-1.3-.9-2.1-2.37-2.1H29.6v6.3h1.53v-2h.95l1.34 2h1.75l-1.53-2.25zM22.87 19.1h-1.64l-1.6 4.24-1.58-4.25h-1.63l2.46 6.3h1.55l2.45-6.3zM44.8 20.32h1.92v4.97h1.43v-4.13c0-.42-.56-.88-.56-.88h2.33v-1.2H44.8zM3.9 23.67c0 .23-.1.34-.32.34H1.86c-.24 0-.36-.1-.36-.33V19.1H0v4.42c0 .86.3 1.48.9 1.85h3.4c.76-.42 1.14-1.1 1.14-2.02V19.1h-1.5zM43.34 19.1h-.88v6.2h1.46v-5.25c0-.5-.52-.94-.6-.98M56.84 19.1h-1.56l-1.48 2.43-1.45-2.44h-1.69l2.4 3.78v2.47h1.46v-2.5l2.4-3.76zM40.56 21.57h-3.18v-.86c0-.22.12-.34.35-.34h3.4v-1.3H36.8c-.6.36-.9.98-.9 1.84v.13c0 .86.3 1.43.9 1.8h3.17v.86c0 .22-.12.34-.35.34h-3.4v1.3h4.34c.6-.36.9-.98.9-1.84v-.13c0-.86-.3-1.43-.9-1.8M25.2 24.2v-1.3h2.83v-1.23h-2.85v-.45c0-.43-.57-.9-.57-.9h3.83v-1.2h-4.79v6.3h4.81V24.2h-.08zM14.1 19.1h-.07v6.3h1.54v-6.3h-.08zM11.1 19.1h-.11v3.54l-2.7-3.55H6.85v6.3H8.4V21.7l2.8 3.67h1.34v-6.3h-.08z" fill="#fff"/><path fill="#00abb7" d="M47.33 13.28h2.83v-1.22H47.3v-.45c0-.42-.56-.88-.56-.88h3.82V9.5h-4.7v6.3h4.74v-1.22h-3.27zM52.93 14.6s.56-.47.56-.9V9.5h-1.45v6.3h4.7v-1.2zM39.38 12.57h-1.36v-.92c0-.44-.53-.88-.53-.88h1.85c.66 0 1.03.37 1.05.9-.02.52-.4.9-1.02.9m1.26.98c.78-.35 1.2-1.02 1.2-1.9v-.02c0-1.28-.9-2.08-2.37-2.08H36.6v6.28H38v-2h1.03l1.34 2h1.66L40.5 13.6zM43.93 9.54h-.84v6.3h1.45v-5.32c0-.45-.56-.94-.62-.98M31.7 13.17l.72-1.8.72 1.8zm1.46-3.62H31.7l-2.64 6.3h1.55l.57-1.4h2.48l.55 1.4h1.55l-2.6-6.3z"/></svg>